# xmcd CD database file
#
# Track frame offsets:
#	183
#	25970
#	43385
#	64328
#	76088
#	94203
#	105643
#	119993
#	132665
#	143665
#	154245
#	166543
#	178145
#	189658
#	203803
#	216743
#
# Disc length: 3068 seconds
#
# Revision: 2
# Processed by: cddbd v1.4PL0 Copyright (c) Steve Scherf et al.
# Submitted via: CDex 1.51
#
DISCID=f70bfa10
DTITLE=[VA] - Soul Collection V2 CD2
DYEAR=1900
DGENRE=Soul
TTITLE0=James Brown - The Right Time (The Night Time Is The Right Time)
TTITLE1=John Holt - Let Your Love Flow
TTITLE2=Wilson Pickett and Jackie Moore - Precious Precious
TTITLE3=Percy Sledge - (Sittin' On) The Dock Of The Bay
TTITLE4=Soulful Dynamics - I Will Love You (Like A, B, C)
TTITLE5=Little Antony and The Imperials - (I Think I'm) Going Out Of My Head
TTITLE6=Gloria Gaynor - What A Wonderful World
TTITLE7=Archie Bell and The Drells - Tighten Up
TTITLE8=Ben E. King - I Who Have Nothing (Uno Dei Tanti)
TTITLE9=Gene Chandler - Duke Of Earl
TTITLE10=King Curtis - Soul Twist
TTITLE11=Rufus Thomas - Walking The Dog
TTITLE12=Carol Douglas - Light My Fire
TTITLE13=Ike and Tina Turner - Lean On Me
TTITLE14=The Commodores - Keep On Dancing
TTITLE15=Jimmy Ruffin - What Becomes Of The Broken Hearted
EXTD=
EXTT0=
EXTT1=
EXTT2=
EXTT3=
EXTT4=
EXTT5=
EXTT6=
EXTT7=
EXTT8=
EXTT9=
EXTT10=
EXTT11=
EXTT12=
EXTT13=
EXTT14=
EXTT15=
PLAYORDER=
